<mxfile host="Electron" modified="2023-07-31T11:29:58.917Z" agent="Mozilla/5.0 (Macintosh; Intel Mac OS X 10_15_7) AppleWebKit/537.36 (KHTML, like Gecko) draw.io/21.6.5 Chrome/114.0.5735.243 Electron/25.3.1 Safari/537.36" etag="bjMfm9-WhDW-K4qEsAsP" version="21.6.5" type="device">
  <diagram name="Page-1" id="vZU3dGmcus4kXrwmtiOZ">
    <mxGraphModel dx="1250" dy="732" grid="1" gridSize="10" guides="1" tooltips="1" connect="1" arrows="1" fold="1" page="1" pageScale="1" pageWidth="1169" pageHeight="827" math="0" shadow="0">
      <root>
        <mxCell id="0" />
        <mxCell id="1" parent="0" />
        <mxCell id="orxBCWLPlVjuV4u_eDWs-86" style="edgeStyle=orthogonalEdgeStyle;rounded=0;orthogonalLoop=1;jettySize=auto;html=1;exitX=0.5;exitY=1;exitDx=0;exitDy=0;entryX=0.5;entryY=0;entryDx=0;entryDy=0;fillColor=#60a917;strokeColor=#2D7600;" parent="1" source="orxBCWLPlVjuV4u_eDWs-9" target="orxBCWLPlVjuV4u_eDWs-68" edge="1">
          <mxGeometry relative="1" as="geometry" />
        </mxCell>
        <mxCell id="orxBCWLPlVjuV4u_eDWs-87" style="edgeStyle=orthogonalEdgeStyle;rounded=0;orthogonalLoop=1;jettySize=auto;html=1;exitX=0.5;exitY=1;exitDx=0;exitDy=0;entryX=0.5;entryY=0;entryDx=0;entryDy=0;fillColor=#60a917;strokeColor=#2D7600;" parent="1" source="orxBCWLPlVjuV4u_eDWs-9" target="orxBCWLPlVjuV4u_eDWs-194" edge="1">
          <mxGeometry relative="1" as="geometry">
            <mxPoint x="255" y="120" as="targetPoint" />
          </mxGeometry>
        </mxCell>
        <mxCell id="orxBCWLPlVjuV4u_eDWs-117" style="edgeStyle=orthogonalEdgeStyle;rounded=0;orthogonalLoop=1;jettySize=auto;html=1;exitX=0.5;exitY=1;exitDx=0;exitDy=0;entryX=0.5;entryY=0;entryDx=0;entryDy=0;fillColor=#60a917;strokeColor=#2D7600;" parent="1" source="orxBCWLPlVjuV4u_eDWs-9" target="orxBCWLPlVjuV4u_eDWs-95" edge="1">
          <mxGeometry relative="1" as="geometry" />
        </mxCell>
        <mxCell id="ZGKc3Tkbb5V_qoCuYONS-1" style="edgeStyle=orthogonalEdgeStyle;rounded=0;orthogonalLoop=1;jettySize=auto;html=1;exitX=0.5;exitY=1;exitDx=0;exitDy=0;entryX=0.75;entryY=0;entryDx=0;entryDy=0;fillColor=#60a917;strokeColor=#2D7600;" edge="1" parent="1" source="orxBCWLPlVjuV4u_eDWs-9" target="orxBCWLPlVjuV4u_eDWs-119">
          <mxGeometry relative="1" as="geometry">
            <Array as="points">
              <mxPoint x="610" y="80" />
              <mxPoint x="465" y="80" />
            </Array>
          </mxGeometry>
        </mxCell>
        <mxCell id="ZGKc3Tkbb5V_qoCuYONS-2" style="edgeStyle=orthogonalEdgeStyle;rounded=0;orthogonalLoop=1;jettySize=auto;html=1;exitX=0.5;exitY=1;exitDx=0;exitDy=0;entryX=0.25;entryY=0;entryDx=0;entryDy=0;fillColor=#60a917;strokeColor=#2D7600;" edge="1" parent="1" source="orxBCWLPlVjuV4u_eDWs-9" target="orxBCWLPlVjuV4u_eDWs-130">
          <mxGeometry relative="1" as="geometry">
            <Array as="points">
              <mxPoint x="610" y="80" />
              <mxPoint x="755" y="80" />
            </Array>
          </mxGeometry>
        </mxCell>
        <mxCell id="orxBCWLPlVjuV4u_eDWs-9" value="" style="ellipse;html=1;shape=startState;fillColor=#000000;strokeColor=#2E7601;" parent="1" vertex="1">
          <mxGeometry x="595" y="10" width="30" height="30" as="geometry" />
        </mxCell>
        <mxCell id="orxBCWLPlVjuV4u_eDWs-157" style="edgeStyle=orthogonalEdgeStyle;rounded=0;orthogonalLoop=1;jettySize=auto;html=1;entryX=0.5;entryY=0;entryDx=0;entryDy=0;fillColor=#e51400;strokeColor=#B20000;exitX=1;exitY=0.25;exitDx=0;exitDy=0;" parent="1" source="orxBCWLPlVjuV4u_eDWs-182" target="orxBCWLPlVjuV4u_eDWs-207" edge="1">
          <mxGeometry relative="1" as="geometry">
            <mxPoint x="450" y="431" as="sourcePoint" />
            <mxPoint x="595" y="470" as="targetPoint" />
            <Array as="points">
              <mxPoint x="400" y="410" />
              <mxPoint x="610" y="410" />
            </Array>
          </mxGeometry>
        </mxCell>
        <mxCell id="orxBCWLPlVjuV4u_eDWs-115" style="edgeStyle=orthogonalEdgeStyle;rounded=0;orthogonalLoop=1;jettySize=auto;html=1;exitX=1;exitY=0.25;exitDx=0;exitDy=0;entryX=0;entryY=0.25;entryDx=0;entryDy=0;" parent="1" source="orxBCWLPlVjuV4u_eDWs-68" target="orxBCWLPlVjuV4u_eDWs-95" edge="1">
          <mxGeometry relative="1" as="geometry" />
        </mxCell>
        <mxCell id="orxBCWLPlVjuV4u_eDWs-150" style="edgeStyle=orthogonalEdgeStyle;rounded=0;orthogonalLoop=1;jettySize=auto;html=1;exitX=0.5;exitY=1;exitDx=0;exitDy=0;entryX=0.5;entryY=0;entryDx=0;entryDy=0;fillColor=#e51400;strokeColor=#B20000;" parent="1" source="orxBCWLPlVjuV4u_eDWs-68" target="orxBCWLPlVjuV4u_eDWs-207" edge="1">
          <mxGeometry relative="1" as="geometry">
            <mxPoint x="610" y="455" as="targetPoint" />
          </mxGeometry>
        </mxCell>
        <mxCell id="orxBCWLPlVjuV4u_eDWs-205" style="edgeStyle=orthogonalEdgeStyle;rounded=0;orthogonalLoop=1;jettySize=auto;html=1;exitX=0;exitY=0.25;exitDx=0;exitDy=0;entryX=1;entryY=0.25;entryDx=0;entryDy=0;" parent="1" source="orxBCWLPlVjuV4u_eDWs-68" target="orxBCWLPlVjuV4u_eDWs-194" edge="1">
          <mxGeometry relative="1" as="geometry" />
        </mxCell>
        <mxCell id="orxBCWLPlVjuV4u_eDWs-68" value="given" style="swimlane;whiteSpace=wrap;html=1;fillColor=#6a00ff;fontColor=#ffffff;strokeColor=#3700CC;container=0;" parent="1" vertex="1">
          <mxGeometry x="480" y="120" width="260" height="210" as="geometry" />
        </mxCell>
        <mxCell id="orxBCWLPlVjuV4u_eDWs-114" value="" style="group" parent="orxBCWLPlVjuV4u_eDWs-68" vertex="1" connectable="0">
          <mxGeometry x="20" y="35" width="220" height="160" as="geometry" />
        </mxCell>
        <mxCell id="orxBCWLPlVjuV4u_eDWs-65" value="given" style="rounded=1;whiteSpace=wrap;html=1;fillColor=#6a00ff;fontColor=#ffffff;strokeColor=#3700CC;" parent="orxBCWLPlVjuV4u_eDWs-114" vertex="1">
          <mxGeometry y="60" width="80" height="40" as="geometry" />
        </mxCell>
        <mxCell id="orxBCWLPlVjuV4u_eDWs-66" value="and" style="rounded=1;whiteSpace=wrap;html=1;fillColor=#60a917;fontColor=#ffffff;strokeColor=#2D7600;" parent="orxBCWLPlVjuV4u_eDWs-114" vertex="1">
          <mxGeometry x="120" y="60" width="80" height="40" as="geometry" />
        </mxCell>
        <mxCell id="orxBCWLPlVjuV4u_eDWs-64" style="edgeStyle=orthogonalEdgeStyle;rounded=0;orthogonalLoop=1;jettySize=auto;html=1;exitX=1;exitY=0.5;exitDx=0;exitDy=0;entryX=0;entryY=0.5;entryDx=0;entryDy=0;" parent="orxBCWLPlVjuV4u_eDWs-114" source="orxBCWLPlVjuV4u_eDWs-65" target="orxBCWLPlVjuV4u_eDWs-66" edge="1">
          <mxGeometry relative="1" as="geometry" />
        </mxCell>
        <mxCell id="orxBCWLPlVjuV4u_eDWs-71" value="" style="ellipse;html=1;shape=endState;fillColor=#000000;strokeColor=#ff0000;" parent="orxBCWLPlVjuV4u_eDWs-114" vertex="1">
          <mxGeometry x="25" y="130" width="30" height="30" as="geometry" />
        </mxCell>
        <mxCell id="orxBCWLPlVjuV4u_eDWs-108" style="edgeStyle=orthogonalEdgeStyle;rounded=0;orthogonalLoop=1;jettySize=auto;html=1;exitX=0.5;exitY=1;exitDx=0;exitDy=0;entryX=0.5;entryY=0;entryDx=0;entryDy=0;" parent="orxBCWLPlVjuV4u_eDWs-114" source="orxBCWLPlVjuV4u_eDWs-65" target="orxBCWLPlVjuV4u_eDWs-71" edge="1">
          <mxGeometry relative="1" as="geometry" />
        </mxCell>
        <mxCell id="orxBCWLPlVjuV4u_eDWs-109" style="edgeStyle=orthogonalEdgeStyle;rounded=0;orthogonalLoop=1;jettySize=auto;html=1;exitX=0.5;exitY=1;exitDx=0;exitDy=0;entryX=1;entryY=0.5;entryDx=0;entryDy=0;" parent="orxBCWLPlVjuV4u_eDWs-114" source="orxBCWLPlVjuV4u_eDWs-66" target="orxBCWLPlVjuV4u_eDWs-71" edge="1">
          <mxGeometry relative="1" as="geometry" />
        </mxCell>
        <mxCell id="orxBCWLPlVjuV4u_eDWs-110" style="edgeStyle=orthogonalEdgeStyle;rounded=0;orthogonalLoop=1;jettySize=auto;html=1;exitX=1;exitY=0.5;exitDx=0;exitDy=0;entryX=0.75;entryY=0;entryDx=0;entryDy=0;" parent="orxBCWLPlVjuV4u_eDWs-114" source="orxBCWLPlVjuV4u_eDWs-66" target="orxBCWLPlVjuV4u_eDWs-66" edge="1">
          <mxGeometry relative="1" as="geometry">
            <Array as="points">
              <mxPoint x="220" y="80" />
              <mxPoint x="220" y="40" />
              <mxPoint x="180" y="40" />
            </Array>
          </mxGeometry>
        </mxCell>
        <mxCell id="orxBCWLPlVjuV4u_eDWs-69" value="" style="ellipse;html=1;shape=startState;fillColor=#000000;strokeColor=#2E7601;" parent="orxBCWLPlVjuV4u_eDWs-114" vertex="1">
          <mxGeometry x="25" width="30" height="30" as="geometry" />
        </mxCell>
        <mxCell id="orxBCWLPlVjuV4u_eDWs-70" value="" style="edgeStyle=orthogonalEdgeStyle;html=1;verticalAlign=bottom;endArrow=open;endSize=8;strokeColor=#2D7600;rounded=0;entryX=0.5;entryY=0;entryDx=0;entryDy=0;fillColor=#60a917;" parent="orxBCWLPlVjuV4u_eDWs-114" source="orxBCWLPlVjuV4u_eDWs-69" target="orxBCWLPlVjuV4u_eDWs-65" edge="1">
          <mxGeometry relative="1" as="geometry">
            <mxPoint x="60" y="70" as="targetPoint" />
          </mxGeometry>
        </mxCell>
        <mxCell id="orxBCWLPlVjuV4u_eDWs-158" style="edgeStyle=orthogonalEdgeStyle;rounded=0;orthogonalLoop=1;jettySize=auto;html=1;exitX=0.5;exitY=1;exitDx=0;exitDy=0;entryX=0.5;entryY=0;entryDx=0;entryDy=0;fillColor=#e51400;strokeColor=#B20000;" parent="1" source="orxBCWLPlVjuV4u_eDWs-95" target="orxBCWLPlVjuV4u_eDWs-207" edge="1">
          <mxGeometry relative="1" as="geometry">
            <mxPoint x="625" y="470" as="targetPoint" />
            <Array as="points">
              <mxPoint x="950" y="410" />
              <mxPoint x="610" y="410" />
            </Array>
          </mxGeometry>
        </mxCell>
        <mxCell id="orxBCWLPlVjuV4u_eDWs-95" value="expect" style="swimlane;whiteSpace=wrap;html=1;fillColor=#e51400;fontColor=#ffffff;strokeColor=#B20000;" parent="1" vertex="1">
          <mxGeometry x="820" y="120" width="260" height="210" as="geometry" />
        </mxCell>
        <mxCell id="orxBCWLPlVjuV4u_eDWs-107" value="" style="group" parent="orxBCWLPlVjuV4u_eDWs-95" vertex="1" connectable="0">
          <mxGeometry x="20" y="34" width="220" height="160" as="geometry" />
        </mxCell>
        <mxCell id="orxBCWLPlVjuV4u_eDWs-97" value="" style="ellipse;html=1;shape=startState;fillColor=#000000;strokeColor=#2E7601;" parent="orxBCWLPlVjuV4u_eDWs-107" vertex="1">
          <mxGeometry x="25" width="30" height="30" as="geometry" />
        </mxCell>
        <mxCell id="orxBCWLPlVjuV4u_eDWs-98" value="" style="edgeStyle=orthogonalEdgeStyle;html=1;verticalAlign=bottom;endArrow=open;endSize=8;strokeColor=#2D7600;rounded=0;entryX=0.5;entryY=0;entryDx=0;entryDy=0;fillColor=#60a917;" parent="orxBCWLPlVjuV4u_eDWs-107" source="orxBCWLPlVjuV4u_eDWs-97" target="orxBCWLPlVjuV4u_eDWs-99" edge="1">
          <mxGeometry relative="1" as="geometry">
            <mxPoint x="80" y="70" as="targetPoint" />
          </mxGeometry>
        </mxCell>
        <mxCell id="orxBCWLPlVjuV4u_eDWs-99" value="expect" style="rounded=1;whiteSpace=wrap;html=1;fillColor=#e51400;fontColor=#ffffff;strokeColor=#B20000;" parent="orxBCWLPlVjuV4u_eDWs-107" vertex="1">
          <mxGeometry y="60" width="80" height="40" as="geometry" />
        </mxCell>
        <mxCell id="orxBCWLPlVjuV4u_eDWs-101" value="and" style="rounded=1;whiteSpace=wrap;html=1;fillColor=#60a917;fontColor=#ffffff;strokeColor=#2D7600;" parent="orxBCWLPlVjuV4u_eDWs-107" vertex="1">
          <mxGeometry x="120" y="60" width="80" height="40" as="geometry" />
        </mxCell>
        <mxCell id="orxBCWLPlVjuV4u_eDWs-102" style="edgeStyle=orthogonalEdgeStyle;rounded=0;orthogonalLoop=1;jettySize=auto;html=1;exitX=1;exitY=0.5;exitDx=0;exitDy=0;entryX=0;entryY=0.5;entryDx=0;entryDy=0;" parent="orxBCWLPlVjuV4u_eDWs-107" source="orxBCWLPlVjuV4u_eDWs-99" target="orxBCWLPlVjuV4u_eDWs-101" edge="1">
          <mxGeometry relative="1" as="geometry" />
        </mxCell>
        <mxCell id="orxBCWLPlVjuV4u_eDWs-103" value="" style="ellipse;html=1;shape=endState;fillColor=#000000;strokeColor=#ff0000;" parent="orxBCWLPlVjuV4u_eDWs-107" vertex="1">
          <mxGeometry x="25" y="130" width="30" height="30" as="geometry" />
        </mxCell>
        <mxCell id="orxBCWLPlVjuV4u_eDWs-104" style="edgeStyle=orthogonalEdgeStyle;rounded=0;orthogonalLoop=1;jettySize=auto;html=1;exitX=0.5;exitY=1;exitDx=0;exitDy=0;entryX=1;entryY=0.5;entryDx=0;entryDy=0;" parent="orxBCWLPlVjuV4u_eDWs-107" source="orxBCWLPlVjuV4u_eDWs-101" target="orxBCWLPlVjuV4u_eDWs-103" edge="1">
          <mxGeometry relative="1" as="geometry" />
        </mxCell>
        <mxCell id="orxBCWLPlVjuV4u_eDWs-106" style="edgeStyle=orthogonalEdgeStyle;rounded=0;orthogonalLoop=1;jettySize=auto;html=1;exitX=0.5;exitY=1;exitDx=0;exitDy=0;entryX=0.5;entryY=0;entryDx=0;entryDy=0;" parent="orxBCWLPlVjuV4u_eDWs-107" source="orxBCWLPlVjuV4u_eDWs-99" target="orxBCWLPlVjuV4u_eDWs-103" edge="1">
          <mxGeometry relative="1" as="geometry" />
        </mxCell>
        <mxCell id="orxBCWLPlVjuV4u_eDWs-105" style="edgeStyle=orthogonalEdgeStyle;rounded=0;orthogonalLoop=1;jettySize=auto;html=1;exitX=1;exitY=0.5;exitDx=0;exitDy=0;entryX=0.75;entryY=0;entryDx=0;entryDy=0;" parent="orxBCWLPlVjuV4u_eDWs-107" source="orxBCWLPlVjuV4u_eDWs-101" target="orxBCWLPlVjuV4u_eDWs-101" edge="1">
          <mxGeometry relative="1" as="geometry">
            <Array as="points">
              <mxPoint x="220" y="80" />
              <mxPoint x="220" y="40" />
              <mxPoint x="180" y="40" />
            </Array>
          </mxGeometry>
        </mxCell>
        <mxCell id="orxBCWLPlVjuV4u_eDWs-118" style="edgeStyle=orthogonalEdgeStyle;rounded=0;orthogonalLoop=1;jettySize=auto;html=1;exitX=1;exitY=0.25;exitDx=0;exitDy=0;entryX=0.75;entryY=0;entryDx=0;entryDy=0;" parent="1" source="orxBCWLPlVjuV4u_eDWs-95" target="orxBCWLPlVjuV4u_eDWs-95" edge="1">
          <mxGeometry relative="1" as="geometry">
            <Array as="points">
              <mxPoint x="1120" y="175" />
              <mxPoint x="1120" y="80" />
              <mxPoint x="1015" y="80" />
            </Array>
          </mxGeometry>
        </mxCell>
        <mxCell id="orxBCWLPlVjuV4u_eDWs-153" style="edgeStyle=orthogonalEdgeStyle;rounded=0;orthogonalLoop=1;jettySize=auto;html=1;exitX=1;exitY=0.5;exitDx=0;exitDy=0;entryX=0;entryY=0.5;entryDx=0;entryDy=0;" parent="1" source="orxBCWLPlVjuV4u_eDWs-119" target="orxBCWLPlVjuV4u_eDWs-130" edge="1">
          <mxGeometry relative="1" as="geometry" />
        </mxCell>
        <mxCell id="orxBCWLPlVjuV4u_eDWs-213" style="edgeStyle=orthogonalEdgeStyle;rounded=0;orthogonalLoop=1;jettySize=auto;html=1;exitX=1;exitY=0.25;exitDx=0;exitDy=0;entryX=0.5;entryY=1;entryDx=0;entryDy=0;fillColor=#e51400;strokeColor=#B20000;" parent="1" source="orxBCWLPlVjuV4u_eDWs-119" target="orxBCWLPlVjuV4u_eDWs-208" edge="1">
          <mxGeometry relative="1" as="geometry" />
        </mxCell>
        <mxCell id="orxBCWLPlVjuV4u_eDWs-119" value="cleanup" style="swimlane;whiteSpace=wrap;html=1;fillColor=#f0a30a;fontColor=#000000;strokeColor=#BD7000;" parent="1" vertex="1">
          <mxGeometry x="270" y="600" width="260" height="210" as="geometry">
            <mxRectangle x="480" y="600" width="90" height="30" as="alternateBounds" />
          </mxGeometry>
        </mxCell>
        <mxCell id="orxBCWLPlVjuV4u_eDWs-120" value="" style="group" parent="orxBCWLPlVjuV4u_eDWs-119" vertex="1" connectable="0">
          <mxGeometry x="20" y="34" width="220" height="160" as="geometry" />
        </mxCell>
        <mxCell id="orxBCWLPlVjuV4u_eDWs-121" value="" style="ellipse;html=1;shape=startState;fillColor=#000000;strokeColor=#2E7601;" parent="orxBCWLPlVjuV4u_eDWs-120" vertex="1">
          <mxGeometry x="25" width="30" height="30" as="geometry" />
        </mxCell>
        <mxCell id="orxBCWLPlVjuV4u_eDWs-122" value="" style="edgeStyle=orthogonalEdgeStyle;html=1;verticalAlign=bottom;endArrow=open;endSize=8;strokeColor=#2D7600;rounded=0;entryX=0.5;entryY=0;entryDx=0;entryDy=0;fillColor=#60a917;" parent="orxBCWLPlVjuV4u_eDWs-120" source="orxBCWLPlVjuV4u_eDWs-121" target="orxBCWLPlVjuV4u_eDWs-123" edge="1">
          <mxGeometry relative="1" as="geometry">
            <mxPoint x="80" y="70" as="targetPoint" />
          </mxGeometry>
        </mxCell>
        <mxCell id="orxBCWLPlVjuV4u_eDWs-123" value="cleanup" style="rounded=1;whiteSpace=wrap;html=1;fillColor=#f0a30a;fontColor=#000000;strokeColor=#BD7000;" parent="orxBCWLPlVjuV4u_eDWs-120" vertex="1">
          <mxGeometry y="60" width="80" height="40" as="geometry" />
        </mxCell>
        <mxCell id="orxBCWLPlVjuV4u_eDWs-124" value="and" style="rounded=1;whiteSpace=wrap;html=1;fillColor=#60a917;fontColor=#ffffff;strokeColor=#2D7600;" parent="orxBCWLPlVjuV4u_eDWs-120" vertex="1">
          <mxGeometry x="120" y="60" width="80" height="40" as="geometry" />
        </mxCell>
        <mxCell id="orxBCWLPlVjuV4u_eDWs-125" style="edgeStyle=orthogonalEdgeStyle;rounded=0;orthogonalLoop=1;jettySize=auto;html=1;exitX=1;exitY=0.5;exitDx=0;exitDy=0;entryX=0;entryY=0.5;entryDx=0;entryDy=0;" parent="orxBCWLPlVjuV4u_eDWs-120" source="orxBCWLPlVjuV4u_eDWs-123" target="orxBCWLPlVjuV4u_eDWs-124" edge="1">
          <mxGeometry relative="1" as="geometry" />
        </mxCell>
        <mxCell id="orxBCWLPlVjuV4u_eDWs-126" value="" style="ellipse;html=1;shape=endState;fillColor=#000000;strokeColor=#ff0000;" parent="orxBCWLPlVjuV4u_eDWs-120" vertex="1">
          <mxGeometry x="25" y="130" width="30" height="30" as="geometry" />
        </mxCell>
        <mxCell id="orxBCWLPlVjuV4u_eDWs-127" style="edgeStyle=orthogonalEdgeStyle;rounded=0;orthogonalLoop=1;jettySize=auto;html=1;exitX=0.5;exitY=1;exitDx=0;exitDy=0;entryX=1;entryY=0.5;entryDx=0;entryDy=0;" parent="orxBCWLPlVjuV4u_eDWs-120" source="orxBCWLPlVjuV4u_eDWs-124" target="orxBCWLPlVjuV4u_eDWs-126" edge="1">
          <mxGeometry relative="1" as="geometry" />
        </mxCell>
        <mxCell id="orxBCWLPlVjuV4u_eDWs-128" style="edgeStyle=orthogonalEdgeStyle;rounded=0;orthogonalLoop=1;jettySize=auto;html=1;exitX=0.5;exitY=1;exitDx=0;exitDy=0;entryX=0.5;entryY=0;entryDx=0;entryDy=0;" parent="orxBCWLPlVjuV4u_eDWs-120" source="orxBCWLPlVjuV4u_eDWs-123" target="orxBCWLPlVjuV4u_eDWs-126" edge="1">
          <mxGeometry relative="1" as="geometry" />
        </mxCell>
        <mxCell id="orxBCWLPlVjuV4u_eDWs-129" style="edgeStyle=orthogonalEdgeStyle;rounded=0;orthogonalLoop=1;jettySize=auto;html=1;exitX=1;exitY=0.5;exitDx=0;exitDy=0;entryX=0.75;entryY=0;entryDx=0;entryDy=0;" parent="orxBCWLPlVjuV4u_eDWs-120" source="orxBCWLPlVjuV4u_eDWs-124" target="orxBCWLPlVjuV4u_eDWs-124" edge="1">
          <mxGeometry relative="1" as="geometry">
            <Array as="points">
              <mxPoint x="220" y="80" />
              <mxPoint x="220" y="40" />
              <mxPoint x="180" y="40" />
            </Array>
          </mxGeometry>
        </mxCell>
        <mxCell id="orxBCWLPlVjuV4u_eDWs-212" style="edgeStyle=orthogonalEdgeStyle;rounded=0;orthogonalLoop=1;jettySize=auto;html=1;exitX=0;exitY=0.25;exitDx=0;exitDy=0;entryX=0.5;entryY=1;entryDx=0;entryDy=0;fillColor=#e51400;strokeColor=#B20000;" parent="1" source="orxBCWLPlVjuV4u_eDWs-130" target="orxBCWLPlVjuV4u_eDWs-208" edge="1">
          <mxGeometry relative="1" as="geometry" />
        </mxCell>
        <mxCell id="orxBCWLPlVjuV4u_eDWs-130" value="where" style="swimlane;whiteSpace=wrap;html=1;fillColor=#1ba1e2;fontColor=#ffffff;strokeColor=#006EAF;" parent="1" vertex="1">
          <mxGeometry x="690" y="600" width="260" height="210" as="geometry" />
        </mxCell>
        <mxCell id="orxBCWLPlVjuV4u_eDWs-131" value="" style="group" parent="orxBCWLPlVjuV4u_eDWs-130" vertex="1" connectable="0">
          <mxGeometry x="20" y="34" width="220" height="160" as="geometry" />
        </mxCell>
        <mxCell id="orxBCWLPlVjuV4u_eDWs-132" value="" style="ellipse;html=1;shape=startState;fillColor=#000000;strokeColor=#2E7601;" parent="orxBCWLPlVjuV4u_eDWs-131" vertex="1">
          <mxGeometry x="25" width="30" height="30" as="geometry" />
        </mxCell>
        <mxCell id="orxBCWLPlVjuV4u_eDWs-133" value="" style="edgeStyle=orthogonalEdgeStyle;html=1;verticalAlign=bottom;endArrow=open;endSize=8;strokeColor=#2D7600;rounded=0;entryX=0.5;entryY=0;entryDx=0;entryDy=0;fillColor=#60a917;" parent="orxBCWLPlVjuV4u_eDWs-131" source="orxBCWLPlVjuV4u_eDWs-132" target="orxBCWLPlVjuV4u_eDWs-134" edge="1">
          <mxGeometry relative="1" as="geometry">
            <mxPoint x="80" y="70" as="targetPoint" />
          </mxGeometry>
        </mxCell>
        <mxCell id="orxBCWLPlVjuV4u_eDWs-134" value="where" style="rounded=1;whiteSpace=wrap;html=1;fillColor=#1ba1e2;fontColor=#ffffff;strokeColor=#006EAF;" parent="orxBCWLPlVjuV4u_eDWs-131" vertex="1">
          <mxGeometry y="60" width="80" height="40" as="geometry" />
        </mxCell>
        <mxCell id="orxBCWLPlVjuV4u_eDWs-135" value="and" style="rounded=1;whiteSpace=wrap;html=1;fillColor=#60a917;fontColor=#ffffff;strokeColor=#2D7600;" parent="orxBCWLPlVjuV4u_eDWs-131" vertex="1">
          <mxGeometry x="120" y="60" width="80" height="40" as="geometry" />
        </mxCell>
        <mxCell id="orxBCWLPlVjuV4u_eDWs-136" style="edgeStyle=orthogonalEdgeStyle;rounded=0;orthogonalLoop=1;jettySize=auto;html=1;exitX=1;exitY=0.5;exitDx=0;exitDy=0;entryX=0;entryY=0.5;entryDx=0;entryDy=0;" parent="orxBCWLPlVjuV4u_eDWs-131" source="orxBCWLPlVjuV4u_eDWs-134" target="orxBCWLPlVjuV4u_eDWs-135" edge="1">
          <mxGeometry relative="1" as="geometry" />
        </mxCell>
        <mxCell id="orxBCWLPlVjuV4u_eDWs-137" value="" style="ellipse;html=1;shape=endState;fillColor=#000000;strokeColor=#ff0000;" parent="orxBCWLPlVjuV4u_eDWs-131" vertex="1">
          <mxGeometry x="25" y="130" width="30" height="30" as="geometry" />
        </mxCell>
        <mxCell id="orxBCWLPlVjuV4u_eDWs-138" style="edgeStyle=orthogonalEdgeStyle;rounded=0;orthogonalLoop=1;jettySize=auto;html=1;exitX=0.5;exitY=1;exitDx=0;exitDy=0;entryX=1;entryY=0.5;entryDx=0;entryDy=0;" parent="orxBCWLPlVjuV4u_eDWs-131" source="orxBCWLPlVjuV4u_eDWs-135" target="orxBCWLPlVjuV4u_eDWs-137" edge="1">
          <mxGeometry relative="1" as="geometry" />
        </mxCell>
        <mxCell id="orxBCWLPlVjuV4u_eDWs-139" style="edgeStyle=orthogonalEdgeStyle;rounded=0;orthogonalLoop=1;jettySize=auto;html=1;exitX=0.5;exitY=1;exitDx=0;exitDy=0;entryX=0.5;entryY=0;entryDx=0;entryDy=0;" parent="orxBCWLPlVjuV4u_eDWs-131" source="orxBCWLPlVjuV4u_eDWs-134" target="orxBCWLPlVjuV4u_eDWs-137" edge="1">
          <mxGeometry relative="1" as="geometry" />
        </mxCell>
        <mxCell id="orxBCWLPlVjuV4u_eDWs-140" style="edgeStyle=orthogonalEdgeStyle;rounded=0;orthogonalLoop=1;jettySize=auto;html=1;exitX=1;exitY=0.5;exitDx=0;exitDy=0;entryX=0.75;entryY=0;entryDx=0;entryDy=0;" parent="orxBCWLPlVjuV4u_eDWs-131" source="orxBCWLPlVjuV4u_eDWs-135" target="orxBCWLPlVjuV4u_eDWs-135" edge="1">
          <mxGeometry relative="1" as="geometry">
            <Array as="points">
              <mxPoint x="220" y="80" />
              <mxPoint x="220" y="40" />
              <mxPoint x="180" y="40" />
            </Array>
          </mxGeometry>
        </mxCell>
        <mxCell id="orxBCWLPlVjuV4u_eDWs-206" style="edgeStyle=orthogonalEdgeStyle;rounded=0;orthogonalLoop=1;jettySize=auto;html=1;exitX=0;exitY=0.25;exitDx=0;exitDy=0;entryX=0.25;entryY=0;entryDx=0;entryDy=0;startArrow=none;startFill=0;" parent="1" source="orxBCWLPlVjuV4u_eDWs-182" target="orxBCWLPlVjuV4u_eDWs-194" edge="1">
          <mxGeometry relative="1" as="geometry">
            <Array as="points">
              <mxPoint x="100" y="415" />
              <mxPoint x="100" y="100" />
              <mxPoint x="205" y="100" />
            </Array>
          </mxGeometry>
        </mxCell>
        <mxCell id="orxBCWLPlVjuV4u_eDWs-182" value="then" style="swimlane;whiteSpace=wrap;html=1;fillColor=#e51400;fontColor=#ffffff;strokeColor=#B20000;" parent="1" vertex="1">
          <mxGeometry x="140" y="360" width="260" height="220" as="geometry">
            <mxRectangle x="480" y="600" width="90" height="30" as="alternateBounds" />
          </mxGeometry>
        </mxCell>
        <mxCell id="orxBCWLPlVjuV4u_eDWs-183" value="" style="group" parent="orxBCWLPlVjuV4u_eDWs-182" vertex="1" connectable="0">
          <mxGeometry x="20" y="34" width="220" height="160" as="geometry" />
        </mxCell>
        <mxCell id="orxBCWLPlVjuV4u_eDWs-184" value="" style="ellipse;html=1;shape=startState;fillColor=#000000;strokeColor=#2E7601;" parent="orxBCWLPlVjuV4u_eDWs-183" vertex="1">
          <mxGeometry x="25" width="30" height="30" as="geometry" />
        </mxCell>
        <mxCell id="orxBCWLPlVjuV4u_eDWs-185" value="" style="edgeStyle=orthogonalEdgeStyle;html=1;verticalAlign=bottom;endArrow=open;endSize=8;strokeColor=#2D7600;rounded=0;entryX=0.5;entryY=0;entryDx=0;entryDy=0;fillColor=#60a917;" parent="orxBCWLPlVjuV4u_eDWs-183" source="orxBCWLPlVjuV4u_eDWs-184" target="orxBCWLPlVjuV4u_eDWs-186" edge="1">
          <mxGeometry relative="1" as="geometry">
            <mxPoint x="80" y="70" as="targetPoint" />
          </mxGeometry>
        </mxCell>
        <mxCell id="orxBCWLPlVjuV4u_eDWs-186" value="then" style="rounded=1;whiteSpace=wrap;html=1;fillColor=#e51400;fontColor=#ffffff;strokeColor=#B20000;" parent="orxBCWLPlVjuV4u_eDWs-183" vertex="1">
          <mxGeometry y="60" width="80" height="40" as="geometry" />
        </mxCell>
        <mxCell id="orxBCWLPlVjuV4u_eDWs-187" value="and" style="rounded=1;whiteSpace=wrap;html=1;fillColor=#60a917;fontColor=#ffffff;strokeColor=#2D7600;" parent="orxBCWLPlVjuV4u_eDWs-183" vertex="1">
          <mxGeometry x="120" y="60" width="80" height="40" as="geometry" />
        </mxCell>
        <mxCell id="orxBCWLPlVjuV4u_eDWs-188" style="edgeStyle=orthogonalEdgeStyle;rounded=0;orthogonalLoop=1;jettySize=auto;html=1;exitX=1;exitY=0.5;exitDx=0;exitDy=0;entryX=0;entryY=0.5;entryDx=0;entryDy=0;startArrow=classic;startFill=1;" parent="orxBCWLPlVjuV4u_eDWs-183" source="orxBCWLPlVjuV4u_eDWs-186" target="orxBCWLPlVjuV4u_eDWs-187" edge="1">
          <mxGeometry relative="1" as="geometry" />
        </mxCell>
        <mxCell id="orxBCWLPlVjuV4u_eDWs-189" value="" style="ellipse;html=1;shape=endState;fillColor=#000000;strokeColor=#ff0000;" parent="orxBCWLPlVjuV4u_eDWs-183" vertex="1">
          <mxGeometry x="25" y="130" width="30" height="30" as="geometry" />
        </mxCell>
        <mxCell id="orxBCWLPlVjuV4u_eDWs-190" style="edgeStyle=orthogonalEdgeStyle;rounded=0;orthogonalLoop=1;jettySize=auto;html=1;exitX=0.5;exitY=1;exitDx=0;exitDy=0;entryX=1;entryY=0.5;entryDx=0;entryDy=0;" parent="orxBCWLPlVjuV4u_eDWs-183" source="orxBCWLPlVjuV4u_eDWs-187" target="orxBCWLPlVjuV4u_eDWs-189" edge="1">
          <mxGeometry relative="1" as="geometry" />
        </mxCell>
        <mxCell id="orxBCWLPlVjuV4u_eDWs-191" style="edgeStyle=orthogonalEdgeStyle;rounded=0;orthogonalLoop=1;jettySize=auto;html=1;exitX=0.5;exitY=1;exitDx=0;exitDy=0;entryX=0.5;entryY=0;entryDx=0;entryDy=0;" parent="orxBCWLPlVjuV4u_eDWs-183" source="orxBCWLPlVjuV4u_eDWs-186" target="orxBCWLPlVjuV4u_eDWs-189" edge="1">
          <mxGeometry relative="1" as="geometry" />
        </mxCell>
        <mxCell id="orxBCWLPlVjuV4u_eDWs-192" style="edgeStyle=orthogonalEdgeStyle;rounded=0;orthogonalLoop=1;jettySize=auto;html=1;exitX=1;exitY=0.5;exitDx=0;exitDy=0;entryX=0.75;entryY=0;entryDx=0;entryDy=0;" parent="orxBCWLPlVjuV4u_eDWs-183" source="orxBCWLPlVjuV4u_eDWs-187" target="orxBCWLPlVjuV4u_eDWs-187" edge="1">
          <mxGeometry relative="1" as="geometry">
            <Array as="points">
              <mxPoint x="220" y="80" />
              <mxPoint x="220" y="40" />
              <mxPoint x="180" y="40" />
            </Array>
          </mxGeometry>
        </mxCell>
        <mxCell id="orxBCWLPlVjuV4u_eDWs-193" style="edgeStyle=orthogonalEdgeStyle;rounded=0;orthogonalLoop=1;jettySize=auto;html=1;exitX=1;exitY=0.25;exitDx=0;exitDy=0;entryX=0.75;entryY=0;entryDx=0;entryDy=0;" parent="orxBCWLPlVjuV4u_eDWs-183" source="orxBCWLPlVjuV4u_eDWs-186" target="orxBCWLPlVjuV4u_eDWs-186" edge="1">
          <mxGeometry relative="1" as="geometry">
            <Array as="points">
              <mxPoint x="90" y="70" />
              <mxPoint x="90" y="46" />
              <mxPoint x="60" y="46" />
            </Array>
          </mxGeometry>
        </mxCell>
        <mxCell id="gxgNF82Ni87DkbnxDH5m-1" style="edgeStyle=orthogonalEdgeStyle;rounded=0;orthogonalLoop=1;jettySize=auto;html=1;exitX=0.5;exitY=1;exitDx=0;exitDy=0;entryX=0.5;entryY=0;entryDx=0;entryDy=0;" parent="1" source="orxBCWLPlVjuV4u_eDWs-194" target="orxBCWLPlVjuV4u_eDWs-182" edge="1">
          <mxGeometry relative="1" as="geometry" />
        </mxCell>
        <mxCell id="orxBCWLPlVjuV4u_eDWs-194" value="when" style="swimlane;whiteSpace=wrap;html=1;fillColor=#a20025;fontColor=#ffffff;strokeColor=#6F0000;" parent="1" vertex="1">
          <mxGeometry x="140" y="120" width="260" height="210" as="geometry">
            <mxRectangle x="480" y="600" width="90" height="30" as="alternateBounds" />
          </mxGeometry>
        </mxCell>
        <mxCell id="orxBCWLPlVjuV4u_eDWs-195" value="" style="group" parent="orxBCWLPlVjuV4u_eDWs-194" vertex="1" connectable="0">
          <mxGeometry x="20" y="34" width="220" height="160" as="geometry" />
        </mxCell>
        <mxCell id="orxBCWLPlVjuV4u_eDWs-196" value="" style="ellipse;html=1;shape=startState;fillColor=#000000;strokeColor=#2E7601;" parent="orxBCWLPlVjuV4u_eDWs-195" vertex="1">
          <mxGeometry x="25" width="30" height="30" as="geometry" />
        </mxCell>
        <mxCell id="orxBCWLPlVjuV4u_eDWs-197" value="" style="edgeStyle=orthogonalEdgeStyle;html=1;verticalAlign=bottom;endArrow=open;endSize=8;strokeColor=#2D7600;rounded=0;entryX=0.5;entryY=0;entryDx=0;entryDy=0;fillColor=#60a917;" parent="orxBCWLPlVjuV4u_eDWs-195" source="orxBCWLPlVjuV4u_eDWs-196" target="orxBCWLPlVjuV4u_eDWs-198" edge="1">
          <mxGeometry relative="1" as="geometry">
            <mxPoint x="80" y="70" as="targetPoint" />
          </mxGeometry>
        </mxCell>
        <mxCell id="orxBCWLPlVjuV4u_eDWs-198" value="when" style="rounded=1;whiteSpace=wrap;html=1;fillColor=#a20025;fontColor=#ffffff;strokeColor=#6F0000;" parent="orxBCWLPlVjuV4u_eDWs-195" vertex="1">
          <mxGeometry y="60" width="80" height="40" as="geometry" />
        </mxCell>
        <mxCell id="orxBCWLPlVjuV4u_eDWs-199" value="and" style="rounded=1;whiteSpace=wrap;html=1;fillColor=#60a917;fontColor=#ffffff;strokeColor=#2D7600;" parent="orxBCWLPlVjuV4u_eDWs-195" vertex="1">
          <mxGeometry x="120" y="60" width="80" height="40" as="geometry" />
        </mxCell>
        <mxCell id="orxBCWLPlVjuV4u_eDWs-200" style="edgeStyle=orthogonalEdgeStyle;rounded=0;orthogonalLoop=1;jettySize=auto;html=1;exitX=1;exitY=0.5;exitDx=0;exitDy=0;entryX=0;entryY=0.5;entryDx=0;entryDy=0;" parent="orxBCWLPlVjuV4u_eDWs-195" source="orxBCWLPlVjuV4u_eDWs-198" target="orxBCWLPlVjuV4u_eDWs-199" edge="1">
          <mxGeometry relative="1" as="geometry" />
        </mxCell>
        <mxCell id="orxBCWLPlVjuV4u_eDWs-201" value="" style="ellipse;html=1;shape=endState;fillColor=#000000;strokeColor=#ff0000;" parent="orxBCWLPlVjuV4u_eDWs-195" vertex="1">
          <mxGeometry x="25" y="130" width="30" height="30" as="geometry" />
        </mxCell>
        <mxCell id="orxBCWLPlVjuV4u_eDWs-202" style="edgeStyle=orthogonalEdgeStyle;rounded=0;orthogonalLoop=1;jettySize=auto;html=1;exitX=0.5;exitY=1;exitDx=0;exitDy=0;entryX=1;entryY=0.5;entryDx=0;entryDy=0;" parent="orxBCWLPlVjuV4u_eDWs-195" source="orxBCWLPlVjuV4u_eDWs-199" target="orxBCWLPlVjuV4u_eDWs-201" edge="1">
          <mxGeometry relative="1" as="geometry" />
        </mxCell>
        <mxCell id="orxBCWLPlVjuV4u_eDWs-203" style="edgeStyle=orthogonalEdgeStyle;rounded=0;orthogonalLoop=1;jettySize=auto;html=1;exitX=0.5;exitY=1;exitDx=0;exitDy=0;entryX=0.5;entryY=0;entryDx=0;entryDy=0;" parent="orxBCWLPlVjuV4u_eDWs-195" source="orxBCWLPlVjuV4u_eDWs-198" target="orxBCWLPlVjuV4u_eDWs-201" edge="1">
          <mxGeometry relative="1" as="geometry" />
        </mxCell>
        <mxCell id="orxBCWLPlVjuV4u_eDWs-204" style="edgeStyle=orthogonalEdgeStyle;rounded=0;orthogonalLoop=1;jettySize=auto;html=1;exitX=1;exitY=0.5;exitDx=0;exitDy=0;entryX=0.75;entryY=0;entryDx=0;entryDy=0;" parent="orxBCWLPlVjuV4u_eDWs-195" source="orxBCWLPlVjuV4u_eDWs-199" target="orxBCWLPlVjuV4u_eDWs-199" edge="1">
          <mxGeometry relative="1" as="geometry">
            <Array as="points">
              <mxPoint x="220" y="80" />
              <mxPoint x="220" y="40" />
              <mxPoint x="180" y="40" />
            </Array>
          </mxGeometry>
        </mxCell>
        <mxCell id="orxBCWLPlVjuV4u_eDWs-209" style="edgeStyle=orthogonalEdgeStyle;rounded=0;orthogonalLoop=1;jettySize=auto;html=1;exitX=0.5;exitY=1;exitDx=0;exitDy=0;entryX=0.5;entryY=0;entryDx=0;entryDy=0;fillColor=#e51400;strokeColor=#B20000;" parent="1" source="orxBCWLPlVjuV4u_eDWs-207" target="orxBCWLPlVjuV4u_eDWs-208" edge="1">
          <mxGeometry relative="1" as="geometry" />
        </mxCell>
        <mxCell id="orxBCWLPlVjuV4u_eDWs-210" style="edgeStyle=orthogonalEdgeStyle;rounded=0;orthogonalLoop=1;jettySize=auto;html=1;exitX=0;exitY=0.5;exitDx=0;exitDy=0;entryX=1;entryY=0;entryDx=0;entryDy=0;strokeColor=#2E7601;" parent="1" source="orxBCWLPlVjuV4u_eDWs-207" target="orxBCWLPlVjuV4u_eDWs-119" edge="1">
          <mxGeometry relative="1" as="geometry" />
        </mxCell>
        <mxCell id="orxBCWLPlVjuV4u_eDWs-211" style="edgeStyle=orthogonalEdgeStyle;rounded=0;orthogonalLoop=1;jettySize=auto;html=1;exitX=1;exitY=0.5;exitDx=0;exitDy=0;entryX=0;entryY=0;entryDx=0;entryDy=0;strokeColor=#2E7601;" parent="1" source="orxBCWLPlVjuV4u_eDWs-207" target="orxBCWLPlVjuV4u_eDWs-130" edge="1">
          <mxGeometry relative="1" as="geometry" />
        </mxCell>
        <mxCell id="orxBCWLPlVjuV4u_eDWs-207" value="" style="rhombus;whiteSpace=wrap;html=1;" parent="1" vertex="1">
          <mxGeometry x="585" y="450" width="50" height="46" as="geometry" />
        </mxCell>
        <mxCell id="orxBCWLPlVjuV4u_eDWs-208" value="" style="ellipse;html=1;shape=endState;fillColor=#000000;strokeColor=#ff0000;" parent="1" vertex="1">
          <mxGeometry x="595" y="540" width="30" height="30" as="geometry" />
        </mxCell>
      </root>
    </mxGraphModel>
  </diagram>
</mxfile>
